<svg width="291" height="308" viewBox="0 0 291 308" fill="none" xmlns="http://www.w3.org/2000/svg">
<rect width="291" height="308" fill="black"/>
<path d="M233.187 43.0901H212.581C209.168 43.0901 206.412 45.8365 206.412 49.2368V61.3995H189.612V49.2368C189.612 45.8365 186.856 43.0901 183.443 43.0901H159.687C156.274 43.0901 153.518 45.8365 153.518 49.2368V61.3995H136.718V49.2368C136.674 45.8365 133.918 43.0901 130.506 43.0901H107.187C103.774 43.0901 101.018 45.8365 101.018 49.2368V61.3995H84.2182V49.2368C84.2182 45.8365 81.4182 43.0901 78.0495 43.0901H57.3995C53.987 43.0901 51.2307 45.8365 51.2307 49.2368V110.704C51.2307 114.104 53.987 116.851 57.3995 116.851H82.5995L65.362 257.659C64.9245 261.32 67.7682 264.546 71.487 264.546H219.099C222.818 264.546 225.662 261.32 225.224 257.659L207.987 116.851H233.187C236.599 116.851 239.356 114.104 239.356 110.704V49.2368C239.356 45.8365 236.599 43.0901 233.187 43.0901ZM158.899 252.253H131.687V212.365H158.899V252.253ZM212.143 252.253H171.281V206.218C171.281 202.818 168.524 200.071 165.112 200.071H125.518C122.106 200.071 119.349 202.818 119.349 206.218V252.253H78.487L88.5495 169.992H98.1307C101.543 169.992 104.299 167.245 104.299 163.845C104.299 160.444 101.543 157.698 98.1307 157.698H90.037L91.3932 146.756H115.631C119.043 146.756 121.799 144.01 121.799 140.609C121.799 137.209 119.043 134.463 115.631 134.463H92.9245L95.0682 116.851H195.562L212.143 252.253ZM227.018 104.557H63.5682V55.3835H71.837V67.5462C71.837 70.9465 74.5932 73.6929 78.0057 73.6929H107.143C110.556 73.6929 113.312 70.9465 113.312 67.5462V55.3835H124.293V67.5462C124.293 70.9465 127.049 73.6929 130.462 73.6929H159.599C163.012 73.6929 165.768 70.9465 165.768 67.5462V55.3835H177.231V67.5462C177.231 70.9465 179.987 73.6929 183.399 73.6929H212.537C215.949 73.6929 218.706 70.9465 218.706 67.5462V55.3835H226.974V104.557H227.018Z" fill="url(#paint0_linear)"/>
<defs>
<linearGradient id="paint0_linear" x1="142.396" y1="43.0901" x2="167.153" y2="262.075" gradientUnits="userSpaceOnUse">
<stop stop-color="#FBFF2E"/>
<stop offset="1" stop-color="#FF9900"/>
</linearGradient>
</defs>
</svg>
